<svg width="48" fill="#000000" xmlns="http://www.w3.org/2000/svg" height="48" viewBox="0 0 48 48" xmlns:xlink="http://www.w3.org/1999/xlink" enable-background="new 0 0 16 16">
<path d="m39,48h-30c-4.971,0-9-4.029-9-9v-6h6v6c0,1.659 1.344,3 3,3h30c1.659,0 3-1.341 3-3v-30c0-1.656-1.341-3-3-3h-30c-1.656,0-3,1.344-3,3v6h-6v-6c0-4.971 4.029-9 9-9h30c4.971,0 9,4.029 9,9v30c0,4.971-4.029,9-9,9zm-25.149-32.775c1.122-.462 2.412-.207 3.27,.651l6,6c.585,.585 .879,1.353 .879,2.121s-.294,1.536-.879,2.121l-6,6c-.858,.855-2.148,1.113-3.27,.651-1.119-.462-1.851-1.56-1.851-2.772v-2.997h-9c-1.656,0-3-1.341-3-3 0-1.656 1.344-3 3-3h9v-3.003c0-1.212 .732-2.31 1.851-2.772z"/>
</svg>
