<?xml version="1.0" encoding="utf-8"?>
<!-- Generator: Adobe Illustrator 19.0.0, SVG Export Plug-In . SVG Version: 6.00 Build 0)  -->
<svg version="1.1" id="Layer_2" xmlns="http://www.w3.org/2000/svg" xmlns:xlink="http://www.w3.org/1999/xlink" x="0px" y="0px"
	 width="100px" height="100px" viewBox="-249 151 100 100" style="enable-background:new -249 151 100 100;" xml:space="preserve">
<path d="M-150.3,198.6c0,0,0-0.1,0-0.1c0-0.2,0-0.4,0-0.6c0-0.5-0.1-1.1-0.1-1.6c0-0.3-0.1-0.6-0.1-0.9c-0.1-0.5-0.1-0.9-0.2-1.4
	c0-0.3-0.1-0.7-0.2-1c-0.1-0.4-0.1-0.9-0.2-1.3c-0.1-0.3-0.1-0.7-0.2-1c-0.1-0.4-0.2-0.8-0.3-1.2c-0.1-0.3-0.2-0.7-0.3-1
	c-0.1-0.4-0.2-0.8-0.3-1.2c-0.1-0.3-0.2-0.7-0.3-1c-0.1-0.4-0.2-0.8-0.4-1.1c-0.1-0.3-0.3-0.7-0.4-1c-0.1-0.4-0.3-0.7-0.4-1.1
	c-0.1-0.3-0.3-0.7-0.4-1c-0.2-0.4-0.3-0.7-0.5-1.1c-0.2-0.3-0.3-0.7-0.5-1c-0.2-0.3-0.3-0.7-0.5-1c-0.2-0.3-0.3-0.7-0.5-1
	c-0.2-0.3-0.4-0.7-0.5-1c-0.2-0.3-0.4-0.6-0.6-1c-0.2-0.3-0.4-0.6-0.6-1c-0.2-0.3-0.4-0.6-0.6-0.9c-0.2-0.3-0.4-0.6-0.6-0.9
	c-0.2-0.3-0.4-0.6-0.7-0.9c-0.2-0.3-0.4-0.6-0.7-0.9c-0.2-0.3-0.5-0.6-0.7-0.9c-0.2-0.3-0.5-0.6-0.7-0.9c-0.2-0.3-0.5-0.6-0.7-0.8
	c-0.2-0.3-0.5-0.6-0.7-0.8c-0.3-0.3-0.5-0.5-0.8-0.8c-0.3-0.3-0.5-0.5-0.8-0.8c-0.3-0.3-0.5-0.5-0.8-0.8c-0.3-0.3-0.5-0.5-0.8-0.8
	c-0.3-0.3-0.6-0.5-0.9-0.7c-0.3-0.2-0.6-0.5-0.8-0.7c-0.3-0.2-0.6-0.5-0.9-0.7c-0.3-0.2-0.6-0.5-0.9-0.7c-0.3-0.2-0.6-0.4-0.9-0.7
	c-0.3-0.2-0.6-0.4-0.9-0.6c-0.3-0.2-0.6-0.4-0.9-0.6c-0.3-0.2-0.6-0.4-0.9-0.6c-0.3-0.2-0.6-0.4-1-0.6c-0.3-0.2-0.6-0.4-1-0.6
	c-0.3-0.2-0.7-0.4-1-0.5c-0.3-0.2-0.7-0.3-1-0.5c-0.3-0.2-0.7-0.3-1-0.5c-0.3-0.2-0.7-0.3-1-0.5c-0.3-0.2-0.7-0.3-1.1-0.4
	c-0.4-0.1-0.7-0.3-1.1-0.4c-0.4-0.1-0.7-0.3-1.1-0.4c-0.4-0.1-0.7-0.3-1.1-0.4c-0.4-0.1-0.7-0.2-1.1-0.3c-0.4-0.1-0.7-0.2-1.1-0.3
	c-0.4-0.1-0.7-0.2-1.1-0.3c-0.4-0.1-0.8-0.2-1.1-0.3c-0.4-0.1-0.8-0.2-1.1-0.2c-0.4-0.1-0.8-0.1-1.2-0.2c-0.4-0.1-0.8-0.1-1.1-0.2
	c-0.4-0.1-0.8-0.1-1.2-0.2c-0.4,0-0.8-0.1-1.2-0.1c-0.3,0-0.5,0-0.8-0.1c0,0,0,0,0,0c0,0,0,0,0,0c-0.1,0-0.2,0-0.4,0
	c-0.2,0-0.3,0-0.5,0l0,0c-0.2,0-0.4,0-0.6,0c-0.9,0-1.7-0.1-2.5-0.1c-0.8,0-1.6,0-2.5,0.1c-0.2,0-0.4,0-0.6,0l0,0
	c-0.2,0-0.3,0-0.5,0c-0.1,0-0.3,0-0.4,0c0,0,0,0,0,0c0,0,0,0,0,0c-0.4,0-0.8,0.1-1.2,0.1c-0.5,0.1-1,0.1-1.5,0.2
	c-0.5,0.1-1.1,0.2-1.6,0.3c-0.5,0.1-1,0.2-1.5,0.3c-0.5,0.1-1,0.2-1.6,0.4c-0.5,0.1-1,0.2-1.5,0.4c-0.5,0.1-1,0.3-1.5,0.5
	c-0.5,0.2-1,0.3-1.4,0.5c-0.5,0.2-1,0.4-1.5,0.6c-0.5,0.2-0.9,0.4-1.4,0.6c-0.5,0.2-1,0.4-1.5,0.7c-0.5,0.2-0.9,0.4-1.4,0.6
	c-0.5,0.2-1,0.5-1.4,0.8c-0.4,0.2-0.9,0.5-1.3,0.7c-0.5,0.3-0.9,0.6-1.4,0.9c-0.4,0.3-0.8,0.5-1.2,0.8c-0.5,0.3-0.9,0.6-1.3,0.9
	c-0.4,0.3-0.8,0.6-1.2,0.9c-0.4,0.3-0.9,0.7-1.3,1c-0.4,0.3-0.8,0.6-1.1,0.9c-0.4,0.4-0.8,0.8-1.2,1.1c-0.3,0.3-0.7,0.6-1,1
	c-0.4,0.4-0.8,0.8-1.2,1.2c-0.3,0.3-0.6,0.7-1,1c-0.4,0.4-0.8,0.9-1.1,1.4c-0.3,0.3-0.6,0.7-0.9,1c-0.4,0.5-0.7,1-1.1,1.5
	c-0.2,0.3-0.5,0.7-0.7,1c-0.4,0.6-0.8,1.2-1.1,1.8c-0.2,0.3-0.4,0.6-0.6,0.9c-0.3,0.5-0.5,0.9-0.8,1.4c-0.3,0.5-0.5,0.9-0.8,1.4
	c-0.6,1.2-1.1,2.4-1.6,3.6c-2.1,5.1-3.3,10.4-3.5,15.9c0,0.8-0.1,1.7-0.1,2.5c0,0.8,0,1.7,0.1,2.5c0.3,5.6,1.5,11,3.6,16.1
	c0.5,1.2,1.1,2.4,1.7,3.6c0.2,0.5,0.5,0.9,0.8,1.4c0.3,0.5,0.5,0.9,0.8,1.4c0.2,0.3,0.4,0.6,0.6,0.9c0.4,0.6,0.7,1.2,1.1,1.7
	c0.2,0.3,0.5,0.7,0.7,1c0.4,0.5,0.7,1,1.1,1.5c0.3,0.4,0.6,0.7,0.9,1c0.4,0.4,0.7,0.9,1.1,1.3c0.3,0.3,0.6,0.7,1,1
	c0.4,0.4,0.8,0.8,1.2,1.2c0.3,0.3,0.7,0.6,1,1c0.4,0.4,0.8,0.8,1.2,1.1c0.4,0.3,0.7,0.6,1.1,0.9c0.4,0.3,0.8,0.7,1.3,1
	c0.4,0.3,0.8,0.6,1.2,0.8c0.4,0.3,0.9,0.6,1.3,0.9c0.4,0.3,0.8,0.5,1.2,0.8c0.5,0.3,0.9,0.6,1.4,0.8c0.4,0.2,0.9,0.5,1.3,0.7
	c0.5,0.3,0.9,0.5,1.4,0.8c0.4,0.2,0.9,0.4,1.3,0.6c0.5,0.2,1,0.5,1.5,0.7c0.5,0.2,0.9,0.4,1.4,0.5c0.5,0.2,1,0.4,1.5,0.6
	c0.5,0.2,0.9,0.3,1.4,0.5c0.5,0.2,1,0.3,1.6,0.5c0.5,0.1,1,0.2,1.4,0.4c0.5,0.1,1.1,0.3,1.6,0.4c0.5,0.1,1,0.2,1.5,0.3
	c0.5,0.1,1.1,0.2,1.6,0.3c0.5,0.1,1,0.1,1.5,0.2c0.4,0,0.8,0.1,1.3,0.1c0,0,0,0,0,0c0,0,0,0,0,0c0.1,0,0.3,0,0.4,0
	c0.2,0,0.3,0,0.5,0c0,0,0,0,0,0l0.6,0v0c0.9,0,1.7,0.1,2.5,0.1c0.8,0,1.6,0,2.5-0.1v0l0.6,0c0,0,0,0,0,0c0.2,0,0.3,0,0.5,0
	c0.1,0,0.2,0,0.4,0c0,0,0,0,0,0c0,0,0,0,0,0c0.3,0,0.5,0,0.8-0.1c0.4,0,0.8-0.1,1.2-0.1c0.4,0,0.8-0.1,1.2-0.2
	c0.4-0.1,0.8-0.1,1.1-0.2c0.4-0.1,0.8-0.1,1.2-0.2c0.4-0.1,0.7-0.2,1.1-0.2c0.4-0.1,0.8-0.2,1.1-0.3c0.4-0.1,0.7-0.2,1.1-0.3
	c0.4-0.1,0.7-0.2,1.1-0.3c0.4-0.1,0.7-0.2,1.1-0.3c0.4-0.1,0.7-0.2,1.1-0.4c0.4-0.1,0.7-0.2,1.1-0.4c0.4-0.1,0.7-0.3,1.1-0.4
	c0.3-0.1,0.7-0.3,1-0.4c0.4-0.2,0.7-0.3,1-0.5c0.3-0.2,0.7-0.3,1-0.5c0.3-0.2,0.7-0.3,1-0.5c0.3-0.2,0.7-0.3,1-0.5
	c0.3-0.2,0.7-0.4,1-0.6c0.3-0.2,0.6-0.4,1-0.6c0.3-0.2,0.6-0.4,1-0.6c0.3-0.2,0.6-0.4,0.9-0.6c0.3-0.2,0.6-0.4,0.9-0.7
	c0.3-0.2,0.6-0.4,0.9-0.6c0.3-0.2,0.6-0.5,0.9-0.7c0.3-0.2,0.6-0.5,0.9-0.7c0.3-0.2,0.6-0.5,0.9-0.7c0.3-0.2,0.6-0.5,0.8-0.7
	c0.3-0.3,0.6-0.5,0.8-0.8c0.3-0.3,0.5-0.5,0.8-0.8c0.3-0.3,0.5-0.5,0.8-0.8c0.3-0.3,0.5-0.5,0.8-0.8c0.3-0.3,0.5-0.6,0.8-0.8
	c0.2-0.3,0.5-0.5,0.7-0.8c0.2-0.3,0.5-0.6,0.7-0.9c0.2-0.3,0.5-0.6,0.7-0.9c0.2-0.3,0.5-0.6,0.7-0.9c0.2-0.3,0.4-0.6,0.6-0.9
	c0.2-0.3,0.4-0.6,0.6-1c0.2-0.3,0.4-0.6,0.6-0.9c0.2-0.3,0.4-0.7,0.6-1c0.2-0.3,0.4-0.6,0.6-0.9c0.2-0.3,0.4-0.7,0.6-1
	c0.2-0.3,0.3-0.6,0.5-1c0.2-0.3,0.3-0.7,0.5-1.1c0.2-0.3,0.3-0.6,0.5-1c0.2-0.4,0.3-0.7,0.5-1.1c0.1-0.3,0.3-0.7,0.4-1
	c0.1-0.4,0.3-0.7,0.4-1.1c0.1-0.3,0.3-0.7,0.4-1c0.1-0.4,0.3-0.8,0.4-1.2c0.1-0.3,0.2-0.7,0.3-1c0.1-0.4,0.2-0.8,0.3-1.2
	c0.1-0.3,0.2-0.7,0.3-1c0.1-0.4,0.2-0.8,0.3-1.2c0.1-0.3,0.2-0.7,0.2-1c0.1-0.4,0.2-0.9,0.2-1.3c0.1-0.3,0.1-0.6,0.2-1
	c0.1-0.5,0.1-0.9,0.2-1.4c0-0.3,0.1-0.6,0.1-0.9c0.1-0.5,0.1-1.1,0.1-1.6c0-0.2,0-0.4,0-0.6c0,0,0-0.1,0-0.1c0-0.8,0.1-1.6,0.1-2.4
	S-150.3,199.4-150.3,198.6z M-235.4,176.7c0.1-0.2,0.3-0.4,0.4-0.6c0.5-0.7,1-1.4,1.5-2.1c0.1-0.1,0.2-0.2,0.2-0.3
	c0.5-0.6,0.9-1.1,1.4-1.7c0.2-0.2,0.3-0.4,0.5-0.6c0.4-0.5,0.9-0.9,1.3-1.4c0.2-0.2,0.3-0.3,0.5-0.5c0.6-0.6,1.2-1.2,1.9-1.7
	c0.1-0.1,0.2-0.2,0.3-0.3c0.5-0.5,1.1-0.9,1.7-1.4c0.2-0.2,0.4-0.3,0.6-0.5c0.5-0.4,1-0.7,1.6-1.1c0.2-0.1,0.4-0.3,0.6-0.4
	c0.7-0.5,1.4-0.9,2.1-1.3c0.1-0.1,0.3-0.1,0.4-0.2c0.6-0.3,1.2-0.7,1.9-1c0.2-0.1,0.5-0.2,0.7-0.3c0.6-0.3,1.2-0.5,1.7-0.8
	c0.2-0.1,0.4-0.2,0.6-0.3c0.8-0.3,1.6-0.6,2.4-0.9c0.2-0.1,0.3-0.1,0.5-0.2c0.7-0.2,1.3-0.4,2-0.6c0.3-0.1,0.5-0.1,0.8-0.2
	c0.2-0.1,0.5-0.1,0.7-0.2c0,0,0,0,0,0c0,0,0,0,0,0c0,0,0,0-0.1,0.1c-0.6,0.6-1.1,1.3-1.6,1.9c-0.1,0.2-0.3,0.3-0.4,0.5
	c-0.4,0.5-0.8,1.1-1.2,1.6c-0.1,0.2-0.3,0.4-0.4,0.5c-0.5,0.7-1,1.4-1.5,2c-0.1,0.1-0.1,0.2-0.2,0.3c-0.4,0.6-0.8,1.2-1.2,1.9
	c-0.1,0.2-0.3,0.4-0.4,0.6c-0.4,0.6-0.7,1.2-1.1,1.9c-0.1,0.1-0.1,0.2-0.2,0.3c-0.4,0.7-0.8,1.5-1.2,2.2c-0.1,0.2-0.2,0.4-0.3,0.6
	c-0.3,0.6-0.6,1.2-0.9,1.8c-0.1,0.2-0.2,0.4-0.3,0.6c-0.3,0.8-0.7,1.5-1,2.3c0,0,0,0.1,0,0.1h0h0h-15h0
	C-235.8,177.3-235.6,177-235.4,176.7z M-242.7,198.5c0-0.1,0-0.2,0-0.3c0-0.7,0.1-1.4,0.2-2.1c0-0.3,0.1-0.5,0.1-0.8
	c0.1-0.5,0.1-1.1,0.2-1.6c0-0.3,0.1-0.5,0.1-0.8c0.1-0.5,0.2-1.1,0.3-1.6c0.1-0.2,0.1-0.5,0.2-0.7c0.2-0.8,0.4-1.5,0.6-2.2
	c0,0,0,0,0-0.1c0.2-0.7,0.5-1.4,0.7-2.2c0.1-0.2,0.2-0.5,0.3-0.7c0.2-0.5,0.4-1,0.6-1.5c0.1-0.3,0.2-0.5,0.3-0.8
	c0.1-0.2,0.2-0.4,0.3-0.6h0h15.9h0.1h0c-0.4,1.4-0.8,2.9-1.1,4.3c-0.1,0.2-0.1,0.5-0.2,0.7c-0.1,0.6-0.3,1.2-0.4,1.9
	c0,0.2-0.1,0.4-0.1,0.6c-0.1,0.8-0.3,1.6-0.4,2.4c0,0.1,0,0.3-0.1,0.4c-0.1,0.7-0.2,1.4-0.2,2.1c0,0.2,0,0.5-0.1,0.7
	c-0.1,0.7-0.1,1.4-0.1,2c0,0.2,0,0.3,0,0.5c0,0.1,0,0.1,0,0.2h0h0L-242.7,198.5L-242.7,198.5C-242.7,198.5-242.7,198.5-242.7,198.5z
	 M-238.6,219.6L-238.6,219.6c-0.1-0.2-0.2-0.4-0.3-0.6c-0.1-0.3-0.2-0.5-0.3-0.8c-0.2-0.5-0.4-1-0.6-1.5c-0.1-0.2-0.2-0.5-0.3-0.7
	c-0.3-0.7-0.5-1.5-0.8-2.2c0,0,0,0,0,0c-0.2-0.8-0.4-1.5-0.6-2.3c-0.1-0.2-0.1-0.5-0.2-0.7c-0.1-0.5-0.2-1.1-0.3-1.6
	c-0.1-0.3-0.1-0.6-0.1-0.8c-0.1-0.5-0.2-1.1-0.2-1.6c0-0.3-0.1-0.5-0.1-0.8c-0.1-0.7-0.1-1.3-0.2-2c0-0.1,0-0.2,0-0.4c0,0,0,0,0-0.1
	h0h17.3h0h0c0,0.1,0,0.1,0,0.2c0,0.2,0,0.4,0,0.5c0,0.7,0.1,1.3,0.1,2c0,0.3,0,0.5,0.1,0.8c0.1,0.7,0.1,1.4,0.2,2.1
	c0,0.1,0,0.3,0.1,0.4c0.1,0.8,0.2,1.6,0.4,2.5c0,0.2,0.1,0.4,0.1,0.7c0.1,0.6,0.2,1.2,0.4,1.9c0.1,0.2,0.1,0.5,0.2,0.7
	c0.2,0.8,0.4,1.6,0.6,2.3c0,0,0,0.1,0,0.1c0.2,0.7,0.4,1.3,0.6,2h0h-0.1H-238.6z M-209.8,243.4c-0.2-0.1-0.5-0.1-0.7-0.2
	c-0.7-0.2-1.3-0.4-2-0.6c-0.2-0.1-0.3-0.1-0.5-0.2c-0.8-0.3-1.6-0.6-2.4-0.9c-0.2-0.1-0.4-0.2-0.6-0.2c-0.6-0.3-1.2-0.5-1.8-0.8
	c-0.2-0.1-0.5-0.2-0.7-0.3c-0.6-0.3-1.2-0.6-1.8-1c-0.1-0.1-0.3-0.1-0.4-0.2c-0.7-0.4-1.4-0.9-2.1-1.3c-0.2-0.1-0.4-0.2-0.6-0.4
	c-0.5-0.4-1-0.7-1.6-1.1c-0.2-0.2-0.4-0.3-0.6-0.5c-0.6-0.4-1.1-0.9-1.7-1.3c-0.1-0.1-0.2-0.2-0.3-0.2c-0.6-0.5-1.3-1.1-1.9-1.7
	c-0.2-0.2-0.3-0.3-0.5-0.5c-0.4-0.4-0.9-0.9-1.3-1.4c-0.2-0.2-0.3-0.4-0.5-0.6c-0.5-0.6-1-1.1-1.5-1.7c-0.1-0.1-0.1-0.1-0.2-0.2
	c-0.5-0.7-1-1.3-1.5-2c-0.1-0.2-0.3-0.4-0.4-0.6c-0.2-0.3-0.4-0.6-0.6-0.9h0h14.9h0h0c0,0,0,0.1,0,0.1c0.3,0.8,0.6,1.5,1,2.3
	c0.1,0.2,0.2,0.4,0.3,0.6c0.3,0.6,0.6,1.2,0.8,1.8c0.1,0.2,0.2,0.4,0.3,0.6c0.4,0.7,0.8,1.5,1.2,2.2c0.1,0.1,0.1,0.2,0.2,0.3
	c0.4,0.6,0.7,1.2,1.1,1.9c0.1,0.2,0.2,0.4,0.4,0.6c0.4,0.6,0.8,1.2,1.2,1.8c0.1,0.1,0.1,0.2,0.2,0.3c0.5,0.7,1,1.4,1.4,2
	c0.1,0.2,0.3,0.3,0.4,0.5c0.4,0.5,0.8,1,1.2,1.6c0.1,0.2,0.3,0.3,0.4,0.5c0.5,0.6,1.1,1.3,1.6,1.9c0,0,0,0,0,0c0,0,0,0,0,0
	c0,0,0,0,0,0C-209.4,243.5-209.6,243.4-209.8,243.4z M-201.5,244.2L-201.5,244.2c-0.3-0.3-0.6-0.6-1-0.9c-0.3-0.3-0.6-0.5-0.8-0.8
	c-0.6-0.6-1.2-1.3-1.8-2c-0.2-0.2-0.3-0.4-0.5-0.5c-0.8-0.9-1.5-1.7-2.2-2.6c-0.2-0.2-0.3-0.5-0.5-0.7c-0.5-0.7-1-1.4-1.5-2.1
	c-0.2-0.3-0.4-0.7-0.7-1c-0.4-0.6-0.8-1.3-1.2-1.9c-0.2-0.3-0.4-0.7-0.6-1.1c-0.4-0.7-0.8-1.3-1.1-2c-0.2-0.3-0.3-0.6-0.5-1
	c-0.5-0.9-0.9-1.9-1.4-2.9c0-0.1-0.1-0.1-0.1-0.2c0,0,0,0,0,0h0h13.9V244.2z M-201.5,219.6h-15.9h0c-0.1-0.2-0.1-0.3-0.1-0.5
	c-0.1-0.3-0.2-0.5-0.2-0.8c-0.2-0.5-0.3-1-0.5-1.6c-0.1-0.3-0.1-0.5-0.2-0.8c-0.2-0.6-0.3-1.2-0.5-1.9c0-0.1-0.1-0.3-0.1-0.4
	c-0.2-0.8-0.3-1.5-0.5-2.3c0-0.2-0.1-0.4-0.1-0.7c-0.1-0.6-0.2-1.1-0.3-1.7c0-0.3-0.1-0.5-0.1-0.8c-0.1-0.5-0.1-1.1-0.2-1.6
	c0-0.3-0.1-0.5-0.1-0.8c-0.1-0.7-0.1-1.4-0.1-2.1c0-0.1,0-0.2,0-0.3c0,0,0,0,0-0.1h0h18.8V219.6z M-201.5,198.5h-18.8h0c0,0,0,0,0,0
	c0-0.1,0-0.2,0-0.3c0-0.7,0.1-1.4,0.1-2.1c0-0.3,0-0.5,0.1-0.8c0.1-0.5,0.1-1.1,0.2-1.6c0-0.3,0.1-0.5,0.1-0.8
	c0.1-0.6,0.2-1.1,0.3-1.7c0-0.2,0.1-0.4,0.1-0.7c0.1-0.8,0.3-1.5,0.4-2.3c0-0.1,0.1-0.3,0.1-0.4c0.1-0.6,0.3-1.2,0.4-1.8
	c0.1-0.3,0.1-0.5,0.2-0.8c0.1-0.5,0.3-1,0.4-1.5c0.1-0.3,0.2-0.5,0.2-0.8c0-0.2,0.1-0.3,0.1-0.5h0h15.9V198.5z M-201.5,177.6h-14h0
	c0,0,0,0,0,0c0-0.1,0.1-0.2,0.2-0.3c0.4-0.9,0.8-1.9,1.3-2.8c0.2-0.3,0.4-0.7,0.5-1c0.4-0.7,0.7-1.4,1.1-2c0.2-0.4,0.4-0.7,0.6-1.1
	c0.4-0.6,0.8-1.3,1.2-1.9c0.2-0.3,0.4-0.7,0.7-1c0.5-0.7,1-1.4,1.5-2.1c0.2-0.2,0.3-0.5,0.5-0.7c0.7-0.9,1.4-1.8,2.2-2.6
	c0.2-0.2,0.4-0.4,0.5-0.6c0.6-0.7,1.2-1.3,1.8-1.9c0.3-0.3,0.6-0.6,0.9-0.8c0.3-0.3,0.6-0.6,1-0.9v0V177.6z M-188.4,158.6
	c0.4,0.1,0.7,0.2,1.1,0.3c0.3,0.1,0.6,0.2,1,0.3c0.4,0.1,0.7,0.2,1.1,0.3c0.3,0.1,0.6,0.2,1,0.3c0.3,0.1,0.7,0.3,1,0.4
	c0.3,0.1,0.6,0.2,0.9,0.4c0.3,0.1,0.7,0.3,1,0.4c0.3,0.1,0.6,0.3,0.9,0.4c0.3,0.2,0.7,0.3,1,0.5c0.3,0.1,0.6,0.3,0.9,0.4
	c0.3,0.2,0.7,0.4,1,0.5c0.3,0.2,0.6,0.3,0.8,0.5c0.3,0.2,0.6,0.4,1,0.6c0.3,0.2,0.5,0.3,0.8,0.5c0.3,0.2,0.6,0.4,0.9,0.6
	c0.3,0.2,0.5,0.4,0.8,0.5c0.3,0.2,0.6,0.5,0.9,0.7c0.2,0.2,0.5,0.4,0.7,0.6c0.3,0.2,0.6,0.5,0.9,0.7c0.2,0.2,0.5,0.4,0.7,0.6
	c0.3,0.3,0.6,0.5,0.9,0.8c0.2,0.2,0.4,0.4,0.6,0.6c0.3,0.3,0.6,0.6,0.9,0.9c0.2,0.2,0.4,0.4,0.5,0.5c0.4,0.4,0.7,0.8,1.1,1.2
	c0.1,0.1,0.2,0.2,0.3,0.3c0.4,0.5,0.9,1.1,1.3,1.6c0.1,0.1,0.2,0.2,0.2,0.3c0.3,0.4,0.7,0.9,1,1.3c0.1,0.2,0.3,0.4,0.4,0.6
	c0.3,0.4,0.5,0.8,0.8,1.1c0,0,0,0,0,0.1h0h-15h0h0c0,0,0-0.1,0-0.1c-0.3-0.8-0.6-1.6-1-2.3c-0.1-0.2-0.2-0.4-0.3-0.6
	c-0.3-0.6-0.6-1.2-0.9-1.8c-0.1-0.2-0.2-0.4-0.3-0.6c-0.4-0.8-0.8-1.5-1.2-2.2c-0.1-0.1-0.1-0.2-0.2-0.3c-0.4-0.6-0.7-1.3-1.1-1.9
	c-0.1-0.2-0.2-0.4-0.4-0.6c-0.4-0.6-0.8-1.3-1.2-1.9c-0.1-0.1-0.1-0.2-0.2-0.2c-0.5-0.7-1-1.4-1.5-2c-0.1-0.2-0.3-0.4-0.4-0.5
	c-0.4-0.5-0.8-1.1-1.2-1.6c-0.1-0.2-0.3-0.3-0.4-0.5c-0.5-0.6-1.1-1.3-1.6-1.9c0,0-0.1-0.1-0.1-0.1c0,0,0,0,0,0c0,0,0,0,0,0
	C-188.7,158.5-188.5,158.5-188.4,158.6z M-196.5,203.5h18.8h0c0,0,0,0,0,0.1c0,0.1,0,0.2,0,0.3c0,0.7-0.1,1.4-0.1,2.1
	c0,0.3,0,0.5-0.1,0.8c-0.1,0.5-0.1,1.1-0.2,1.6c0,0.3-0.1,0.5-0.1,0.8c-0.1,0.6-0.2,1.1-0.3,1.7c0,0.2-0.1,0.4-0.1,0.7
	c-0.1,0.8-0.3,1.5-0.5,2.3c0,0.1-0.1,0.3-0.1,0.4c-0.1,0.6-0.3,1.2-0.5,1.9c-0.1,0.3-0.1,0.5-0.2,0.8c-0.1,0.5-0.3,1-0.4,1.5
	c-0.1,0.3-0.2,0.5-0.2,0.8c-0.1,0.2-0.1,0.3-0.1,0.5h0h-15.9V203.5z M-177.7,198.5h-18.8v-15.9h15.9h0c0.1,0.2,0.1,0.3,0.1,0.5
	c0.1,0.2,0.2,0.5,0.2,0.7c0.2,0.5,0.3,1,0.5,1.6c0.1,0.2,0.1,0.5,0.2,0.7c0.2,0.6,0.3,1.3,0.5,1.9c0,0.1,0.1,0.2,0.1,0.4
	c0.2,0.8,0.3,1.5,0.5,2.3c0,0.2,0.1,0.4,0.1,0.6c0.1,0.6,0.2,1.1,0.3,1.7c0,0.3,0.1,0.5,0.1,0.8c0.1,0.6,0.1,1.1,0.2,1.7
	c0,0.2,0,0.5,0.1,0.7c0.1,0.7,0.1,1.5,0.1,2.2C-177.7,198.4-177.7,198.4-177.7,198.5C-177.7,198.5-177.7,198.5-177.7,198.5
	L-177.7,198.5z M-195.5,158.7c0.3,0.3,0.6,0.6,0.9,0.8c0.6,0.6,1.2,1.3,1.8,1.9c0.2,0.2,0.3,0.4,0.5,0.6c0.8,0.9,1.5,1.7,2.2,2.6
	c0.2,0.2,0.3,0.5,0.5,0.7c0.5,0.7,1,1.4,1.5,2.1c0.2,0.3,0.4,0.7,0.7,1c0.4,0.6,0.8,1.3,1.2,1.9c0.2,0.4,0.4,0.7,0.6,1.1
	c0.4,0.7,0.8,1.4,1.1,2c0.2,0.3,0.4,0.7,0.5,1c0.5,0.9,0.9,1.8,1.3,2.7c0.1,0.1,0.1,0.2,0.2,0.3c0,0,0,0,0,0h0h-14v-19.8v0
	C-196.2,158.1-195.9,158.4-195.5,158.7z M-189.7,236.7c-0.2,0.2-0.3,0.5-0.5,0.7c-0.7,0.9-1.4,1.8-2.2,2.6c-0.2,0.2-0.4,0.4-0.5,0.6
	c-0.6,0.7-1.2,1.3-1.8,1.9c-0.3,0.3-0.6,0.6-0.9,0.8c-0.3,0.3-0.6,0.6-0.9,0.9v0v-19.5h13.9h0c0,0,0,0,0,0c0,0,0,0.1-0.1,0.1
	c-0.4,1-0.9,2-1.4,2.9c-0.2,0.3-0.3,0.6-0.5,0.9c-0.4,0.7-0.7,1.4-1.1,2c-0.2,0.4-0.4,0.7-0.6,1c-0.4,0.6-0.8,1.3-1.2,1.9
	c-0.2,0.3-0.4,0.7-0.7,1C-188.7,235.3-189.2,236-189.7,236.7z M-162.6,225.3c-0.2,0.3-0.5,0.7-0.7,1c-0.2,0.2-0.3,0.5-0.5,0.7
	c-0.2,0.3-0.5,0.6-0.7,1c-0.2,0.2-0.4,0.5-0.6,0.7c-0.2,0.3-0.5,0.6-0.7,0.9c-0.2,0.2-0.4,0.4-0.6,0.7c-0.3,0.3-0.5,0.6-0.8,0.9
	c-0.2,0.2-0.4,0.4-0.6,0.7c-0.3,0.3-0.5,0.5-0.8,0.8c-0.2,0.2-0.5,0.4-0.7,0.6c-0.3,0.3-0.5,0.5-0.8,0.8c-0.2,0.2-0.5,0.4-0.7,0.6
	c-0.3,0.2-0.6,0.5-0.9,0.7c-0.2,0.2-0.5,0.4-0.7,0.6c-0.3,0.2-0.6,0.5-0.9,0.7c-0.3,0.2-0.5,0.4-0.8,0.5c-0.3,0.2-0.6,0.4-0.9,0.6
	c-0.3,0.2-0.5,0.3-0.8,0.5c-0.3,0.2-0.6,0.4-0.9,0.6c-0.3,0.2-0.6,0.3-0.8,0.5c-0.3,0.2-0.6,0.4-1,0.5c-0.3,0.2-0.6,0.3-0.9,0.4
	c-0.3,0.2-0.7,0.3-1,0.5c-0.3,0.1-0.6,0.3-0.9,0.4c-0.3,0.1-0.7,0.3-1,0.4c-0.3,0.1-0.6,0.2-0.9,0.4c-0.3,0.1-0.7,0.3-1,0.4
	c-0.3,0.1-0.6,0.2-1,0.3c-0.3,0.1-0.7,0.2-1,0.3c-0.3,0.1-0.7,0.2-1,0.3c-0.3,0.1-0.7,0.2-1,0.3c-0.2,0-0.3,0.1-0.5,0.1c0,0,0,0,0,0
	c0,0,0,0,0,0c0,0,0,0,0.1-0.1c0.6-0.6,1.1-1.3,1.6-1.9c0.1-0.2,0.3-0.3,0.4-0.5c0.4-0.5,0.8-1,1.2-1.6c0.1-0.2,0.3-0.3,0.4-0.5
	c0.5-0.7,1-1.3,1.5-2c0.1-0.1,0.1-0.2,0.2-0.3c0.4-0.6,0.8-1.2,1.2-1.9c0.1-0.2,0.2-0.4,0.4-0.6c0.4-0.6,0.8-1.3,1.1-1.9
	c0.1-0.1,0.1-0.2,0.2-0.3c0.4-0.7,0.8-1.5,1.2-2.2c0.1-0.2,0.2-0.4,0.3-0.6c0.3-0.6,0.6-1.2,0.9-1.8c0.1-0.2,0.2-0.4,0.3-0.6
	c0.3-0.8,0.7-1.5,1-2.3c0,0,0-0.1,0-0.1h0h0h14.9h0C-162.3,224.8-162.5,225-162.6,225.3z M-155.4,204.3c0,0.4-0.1,0.7-0.1,1.1
	c0,0.3-0.1,0.7-0.1,1c0,0.4-0.1,0.7-0.1,1.1c-0.1,0.3-0.1,0.7-0.2,1c-0.1,0.4-0.1,0.7-0.2,1.1c-0.1,0.3-0.1,0.7-0.2,1
	c-0.1,0.3-0.2,0.7-0.2,1c-0.1,0.3-0.2,0.7-0.3,1c-0.1,0.3-0.2,0.7-0.3,1c-0.1,0.3-0.2,0.6-0.3,1c-0.1,0.3-0.2,0.7-0.3,1
	c-0.1,0.3-0.2,0.6-0.4,1c-0.1,0.3-0.2,0.6-0.4,1c-0.1,0.3-0.3,0.6-0.4,1c-0.1,0.3-0.3,0.6-0.4,0.9c0,0.1-0.1,0.1-0.1,0.2h0h-15.8
	h-0.1h0c0.2-0.7,0.4-1.3,0.6-2c0,0,0,0,0,0c0.2-0.8,0.4-1.6,0.6-2.4c0.1-0.2,0.1-0.5,0.2-0.7c0.1-0.6,0.3-1.3,0.4-1.9
	c0-0.2,0.1-0.4,0.1-0.6c0.1-0.8,0.3-1.6,0.4-2.5c0-0.1,0-0.3,0.1-0.4c0.1-0.7,0.2-1.4,0.2-2.1c0-0.2,0-0.5,0.1-0.8
	c0.1-0.7,0.1-1.3,0.1-2c0-0.2,0-0.4,0-0.5c0-0.1,0-0.1,0-0.2h0h0h17.3h0C-155.3,203.8-155.4,204.1-155.4,204.3z M-155.3,198.5h-17.3
	h0h0c0-0.1,0-0.1,0-0.2c0-0.2,0-0.3,0-0.5c0-0.7-0.1-1.4-0.1-2.1c0-0.2,0-0.5-0.1-0.7c-0.1-0.7-0.1-1.4-0.2-2.1c0-0.1,0-0.3,0-0.4
	c-0.1-0.8-0.2-1.6-0.4-2.5c0-0.2-0.1-0.4-0.1-0.6c-0.1-0.6-0.2-1.3-0.4-1.9c0-0.2-0.1-0.4-0.1-0.7c-0.2-0.8-0.4-1.6-0.6-2.4
	c0,0,0,0,0,0c-0.2-0.6-0.4-1.3-0.6-1.9h0h0.1h15.9h0c0,0,0,0.1,0,0.1c0.1,0.3,0.3,0.6,0.4,0.9c0.1,0.3,0.3,0.6,0.4,1
	c0.1,0.3,0.2,0.6,0.3,0.9c0.1,0.3,0.3,0.7,0.4,1c0.1,0.3,0.2,0.6,0.3,0.9c0.1,0.3,0.2,0.7,0.3,1c0.1,0.3,0.2,0.6,0.3,0.9
	c0.1,0.3,0.2,0.7,0.3,1c0.1,0.3,0.1,0.6,0.2,1c0.1,0.3,0.2,0.7,0.2,1c0.1,0.3,0.1,0.7,0.2,1c0.1,0.3,0.1,0.7,0.2,1
	c0.1,0.3,0.1,0.7,0.1,1c0,0.3,0.1,0.7,0.1,1c0,0.4,0.1,0.7,0.1,1.1C-155.4,197.9-155.3,198.2-155.3,198.5L-155.3,198.5z"/>
</svg>
